<?xml version="1.0" encoding="UTF-8" standalone="no"?>
<svg
   width="64"
   height="64"
   viewBox="0 0 64 64"
   version="1.1"
   id="svg15"
   sodipodi:docname="ko_fi_logo_icon_169373.svg"
   inkscape:version="1.3 (0e150ed6c4, 2023-07-21)"
   xmlns:inkscape="http://www.inkscape.org/namespaces/inkscape"
   xmlns:sodipodi="http://sodipodi.sourceforge.net/DTD/sodipodi-0.dtd"
   xmlns="http://www.w3.org/2000/svg"
   xmlns:svg="http://www.w3.org/2000/svg"
   xmlns:rdf="http://www.w3.org/1999/02/22-rdf-syntax-ns#"
   xmlns:cc="http://creativecommons.org/ns#"
   xmlns:dc="http://purl.org/dc/elements/1.1/">
  <metadata
     id="metadata21">
    <rdf:RDF>
      <cc:Work
         rdf:about="">
        <dc:format>image/svg+xml</dc:format>
        <dc:type
           rdf:resource="http://purl.org/dc/dcmitype/StillImage" />
        <dc:title>Artboard</dc:title>
      </cc:Work>
    </rdf:RDF>
  </metadata>
  <defs
     id="defs19" />
  <sodipodi:namedview
     pagecolor="#ffffff"
     bordercolor="#666666"
     borderopacity="1"
     objecttolerance="10"
     gridtolerance="10"
     guidetolerance="10"
     inkscape:pageopacity="0"
     inkscape:pageshadow="2"
     inkscape:window-width="1920"
     inkscape:window-height="1015"
     id="namedview17"
     showgrid="false"
     inkscape:zoom="4.4779848"
     inkscape:cx="37.293561"
     inkscape:cy="77.378557"
     inkscape:window-x="0"
     inkscape:window-y="0"
     inkscape:window-maximized="1"
     inkscape:current-layer="g856"
     inkscape:showpageshadow="2"
     inkscape:pagecheckerboard="0"
     inkscape:deskcolor="#d1d1d1" />
  <!-- Generator: Sketch 53.2 (72643) - https://sketchapp.com -->
  <title
     id="title2">Artboard</title>
  <desc
     id="desc4">Created with Sketch.</desc>
  <g
     id="g856"
     transform="matrix(1.9656019,0,0,1.9656019,-2.8167172e-7,-51.10565)">
    <g
       transform="translate(0,26)"
       id="Group-4"
       style="fill:none;fill-rule:nonzero;stroke:none;stroke-width:1">
      <path
         id="Oval"
         style="fill:#c4a7e7;fill-opacity:1"
         d="M 16.280001 3.0525001e-07 A 16.280001 16.280001 0 0 0 1.4330049e-07 16.280001 A 16.280001 16.280001 0 0 0 16.280001 32.560001 A 16.280001 16.280001 0 0 0 32.560001 16.280001 A 16.280001 16.280001 0 0 0 16.280001 3.0525001e-07 z M 6.1358036 8.7997858 L 22.257813 8.7997858 L 23.865543 8.7997858 C 26.966316 8.7997858 29.479679 11.314142 29.479679 14.414915 L 29.479679 14.744808 C 29.479679 17.845581 26.966316 20.358944 23.865543 20.358944 L 22.257813 20.358944 L 22.257813 22.049147 C 22.257813 23.480273 21.097495 24.639598 19.666368 24.639598 L 7.4315263 24.639598 C 6.0004001 24.639598 4.8400809 23.480273 4.8400809 22.049147 L 4.8400809 10.095508 C 4.8400809 9.3799453 5.4202405 8.7997858 6.1358036 8.7997858 z M 22.257813 11.796641 L 22.257813 17.362088 L 23.723451 17.362088 C 25.260293 17.362088 26.506671 16.116704 26.506671 14.579862 C 26.506671 13.043018 25.260293 11.796641 23.723451 11.796641 L 22.257813 11.796641 z "
         inkscape:export-filename="Oval.png"
         inkscape:export-xdpi="96"
         inkscape:export-ydpi="96" />
    </g>
    <g
       id="Group"
       transform="translate(4.84,34.8)"
       style="fill:#c4a7e7;fill-rule:nonzero;stroke:none;stroke-width:1;fill-opacity:1">
      <path
         d="M 8.36,5.2768458 C 8.7602942,4.1056152 9.7089414,3.52 11.205941,3.52 c 2.2455,0 3.077965,2.7936503 1.900934,4.62 C 12.322188,9.3575665 10.739896,10.897567 8.36,12.76 5.9801039,10.897567 4.3978123,9.3575665 3.613125,8.14 2.4360941,6.3136503 3.2685587,3.52 5.5140587,3.52 7.0110586,3.52 7.9597058,4.1056152 8.36,5.2768458 Z"
         id="Path-2"
         inkscape:connector-curvature="0"
         style="fill:#c4a7e7;fill-opacity:1" />
    </g>
  </g>
</svg>
